<svg xmlns="http://www.w3.org/2000/svg" xmlns:xlink="http://www.w3.org/1999/xlink" width="15.279" height="24.389" viewBox="0 0 15.279 24.389">
  <defs>
    <clipPath id="clip-path">
      <rect id="長方形_94" data-name="長方形 94" width="15.279" height="24.389" fill="none"/>
    </clipPath>
  </defs>
  <g id="グループ_87" data-name="グループ 87" clip-path="url(#clip-path)">
    <path id="パス_295" data-name="パス 295" d="M14.749,14.57a26.276,26.276,0,0,0-3.777-1.862,18.186,18.186,0,0,0-3.719-1.024l-1.406,0,0,1.028H5.837l0-1.19c-.321-.019-.645-.028-.968-.023a8.294,8.294,0,0,1,.968-.184,15.639,15.639,0,0,1,5.848.363,17.764,17.764,0,0,1,2.964,1.026h.615V11.678l-.006-6.491c.015-.156.023-.312.023-.466A4.73,4.73,0,0,0,10.554,0h0a4.734,4.734,0,0,0-4.7,4.307l-.019.006,0,2.441a5.484,5.484,0,0,0-.7.165C3.214,7.513,0,5.311,0,5.311c.566,5.675,3.276,8.316,5.85,9.536l0,4.358c-.015.154-.023.31-.023.464a4.73,4.73,0,0,0,4.725,4.721h0a4.734,4.734,0,0,0,4.7-4.307l.019,0,0-5.187c-.175-.107-.35-.216-.526-.321M6.91,4.835a3.573,3.573,0,0,1,7.147,0,3.534,3.534,0,0,1-.021.374l.006,5.713c-1.742-2.2-4.388-4.181-7.13-4.242Z" transform="translate(0 0)" fill="#fff"/>
  </g>
</svg>
