<svg xmlns="http://www.w3.org/2000/svg" width="30" height="32" viewBox="0 0 30 32">
  <path id="ѹ_16" data-name="ѹ 16" d="M63.478,10.331a9.329,9.329,0,0,1,0-12.589,7.987,7.987,0,0,1,11.8,0,9.33,9.33,0,0,1,0,12.589,7.987,7.987,0,0,1-11.8,0m11.457,3.123c.023.025.04.049.064.074L85.334,24.549a1.109,1.109,0,0,0,1.638,0L88.609,22.8a1.3,1.3,0,0,0,0-1.746L78.28,10.035a.406.406,0,0,0-.075-.068,11.7,11.7,0,0,0-1.447-13.8A9.982,9.982,0,0,0,62-3.831a11.659,11.659,0,0,0,0,15.736,9.952,9.952,0,0,0,12.933,1.549" transform="translate(-58.947 7.09)" fill="#00682f"/>
</svg>
