<svg xmlns="http://www.w3.org/2000/svg" width="85" height="85" viewBox="0 0 85 85">
  <g id="グループ_160" data-name="グループ 160" transform="translate(-211 -579)">
    <circle id="楕円形_1" data-name="楕円形 1" cx="42.5" cy="42.5" r="42.5" transform="translate(211 579)" fill="#fff"/>
    <g id="グループ_16" data-name="グループ 16" transform="translate(235.062 606.929)">
      <path id="パス_19" data-name="パス 19" d="M14.536-7.8l.011,16.436L.282,8.649.271-7.023a6.871,6.871,0,0,1-.038-.745,7.148,7.148,0,0,1,7.144-7.155A7.152,7.152,0,0,1,14.536-7.8" transform="translate(0.648 0.648)" fill="#00682f"/>
      <path id="パス_20" data-name="パス 20" d="M8.033-13.4h0a6.225,6.225,0,0,0-4.436,1.842A6.233,6.233,0,0,0,1.759-7.12a6.157,6.157,0,0,0,.034.654l.008.045v.045L1.808,8.416l12.51-.008L14.307-7.06l0-.087A6.282,6.282,0,0,0,8.033-13.4M.053,10.178.042-6.33A7.655,7.655,0,0,1,0-7.116,7.99,7.99,0,0,1,2.349-12.8a7.979,7.979,0,0,1,5.677-2.356h.008a8.045,8.045,0,0,1,8.025,7.7l0,.011.015,17.608Z" fill="#006830"/>
      <path id="パス_21" data-name="パス 21" d="M14.541,3.037,14.533-9.678.268-9.666.276,2.281a6.991,6.991,0,0,0-.038.749,7.152,7.152,0,0,0,14.3.008" transform="translate(0.662 15.242)" fill="#dcdcdd"/>
      <path id="パス_22" data-name="パス 22" d="M1.794-8.141,1.8,2.978l0,.045a6.268,6.268,0,0,0,6.24,6.921h0a6.28,6.28,0,0,0,6.267-6.259V3.413L14.3-8.152ZM8.038,11.7A8.043,8.043,0,0,1,.005,3.678c0-.261.015-.529.038-.79L.035-9.9l16.024-.011.011,14.28-.034.008A8.046,8.046,0,0,1,8.042,11.7Z" transform="translate(0.014 14.594)" fill="#dcdcdd"/>
      <path id="パス_23" data-name="パス 23" d="M5.744,5.786,5.733-10.65,20-10.661l.011,15.672a6.871,6.871,0,0,1,.038.745,7.152,7.152,0,0,1-14.3.03" transform="translate(15.947 12.505)" fill="#7bbe26"/>
      <path id="パス_24" data-name="パス 24" d="M13.544,12.682h0A6.275,6.275,0,0,0,19.818,6.4a6.157,6.157,0,0,0-.034-.654L19.776,5.7V5.659L19.768-9.132l-12.51.008L7.269,6.343V6.43a6.288,6.288,0,0,0,6.274,6.251m7.98-23.576.011,16.508a7.655,7.655,0,0,1,.042.787,8.031,8.031,0,0,1-8.025,8.04h-.008a8.045,8.045,0,0,1-8.025-7.7l0-.011L5.5-10.883Z" transform="translate(15.299 11.857)" fill="#7abd26"/>
      <path id="パス_25" data-name="パス 25" d="M5.73-7.787,5.738,4.927,20,4.916,20-7.031a6.992,6.992,0,0,0,.038-.749,7.15,7.15,0,0,0-7.155-7.144A7.149,7.149,0,0,0,5.73-7.787" transform="translate(15.941 0.648)" fill="#dcdcdd"/>
      <path id="パス_26" data-name="パス 26" d="M19.774,4.687,19.766-6.432l0-.045a6.245,6.245,0,0,0,.034-.65A6.282,6.282,0,0,0,13.53-13.4h0A6.28,6.28,0,0,0,7.26-7.139v.272L7.267,4.7ZM13.53-15.157a8.043,8.043,0,0,1,8.033,8.025c0,.261-.015.529-.038.79l.008,12.786L5.509,6.457,5.5-7.824l.034-.008a8.046,8.046,0,0,1,7.995-7.325Z" transform="translate(15.293)" fill="#dcdcdd"/>
      <path id="パス_27" data-name="パス 27" d="M11.691,9.308H8.911V-.57H7.368V9.308H4.592V-.57h-1.7V9.308H.115V-3.346H11.691Z" transform="translate(0.319 32.856)" fill="#221815"/>
      <path id="パス_28" data-name="パス 28" d="M6.654,6.422h6.406V9.168H3.909V-3.346h9.152V-.6H6.654Z" transform="translate(10.873 32.855)" fill="#221815"/>
      <path id="パス_29" data-name="パス 29" d="M9.841,2.365h4.168V-.566H9.841ZM16.788,5.14H9.841V9.308H7.065V-3.346h9.723Z" transform="translate(19.653 32.856)" fill="#221815"/>
    </g>
  </g>
</svg>
