<svg xmlns="http://www.w3.org/2000/svg" width="65.589" height="65.59" viewBox="0 0 65.589 65.59">
  <g id="グループ_17" data-name="グループ 17" transform="translate(0 21.103)">
    <path id="パス_30" data-name="パス 30" d="M44.7-17.865a1.557,1.557,0,0,0-2.2,0l-38.5,38.5c0,.006,0,.012-.009.016a1.457,1.457,0,0,0-.3.448.549.549,0,0,0-.047.118.828.828,0,0,0-.062.174L.039,36.714A1.564,1.564,0,0,0,1.91,38.585l15.323-3.54c.056-.012.1-.04.155-.056s.087-.031.131-.05a1.59,1.59,0,0,0,.451-.3c.006,0,.009-.006.016-.006l38.5-38.5a1.566,1.566,0,0,0,.457-1.1,1.557,1.557,0,0,0-.457-1.1ZM8.558,33.852,4.772,30.066l1.209-5.234,7.811,7.811Z" transform="translate(0 5.863)" fill="#fff"/>
    <path id="パス_31" data-name="パス 31" d="M33.419-8.857,21.632-20.646a1.557,1.557,0,0,0-2.2,0L15.5-16.717a1.572,1.572,0,0,0-.454,1.1,1.565,1.565,0,0,0,.454,1.1L27.286-2.724a1.563,1.563,0,0,0,2.2,0l3.929-3.929a1.544,1.544,0,0,0,.457-1.1,1.542,1.542,0,0,0-.457-1.1" transform="translate(31.713)" fill="#fff"/>
  </g>
</svg>
